<?xml version="1.0" encoding="UTF-8"?>
<svg xmlns="http://www.w3.org/2000/svg" xmlns:xlink="http://www.w3.org/1999/xlink" version="1.1" viewBox="0 0 3000 1500">
  <defs>
    <style>
      .cls-1 {
        fill: url(#linear-gradient-3);
      }

      .cls-2 {
        fill: url(#linear-gradient-2);
      }

      .cls-3 {
        fill: url(#linear-gradient);
      }

      .text {
        fill: #ffffff;
        font-family: 'Arial', sans-serif;
        font-size: 350px;
        font-weight: bold;
      }
    </style>
    <linearGradient id="linear-gradient" x1="1192.3" y1="413.7" x2="898.6" y2="678.3" gradientUnits="userSpaceOnUse">
      <stop offset="0" stop-color="#ff156a"/>
      <stop offset="1" stop-color="#ff8a15"/>
    </linearGradient>
    <linearGradient id="linear-gradient-2" x1="98.1" y1="921.5" x2="1173.1" y2="630.3" xlink:href="#linear-gradient"/>
    <linearGradient id="linear-gradient-3" x1="878.8" y1="683.8" x2="878.8" y2="683.8" gradientUnits="userSpaceOnUse">
      <stop offset="0" stop-color="#fff"/>
      <stop offset="1" stop-color="#000"/>
    </linearGradient>
  </defs>
  <!-- Generator: Adobe Illustrator 28.6.0, SVG Export Plug-In . SVG Version: 1.2.0 Build 709)  -->
  <g transform="translate(100, 0)">
    <g id="Layer_1">
      <g transform="scale(0.8)">
        <path class="cls-3" d="M950.4,447.1c-3.2,7.7-47.7,142.5-63.7,206.6-2.8,11.1,8,20.8,18.7,16.8,74.1-27.4,297.8-110.2,366.2-135,8.9-3.2,12.6-13.8,7.7-21.9-25.2-41.3-91.3-149.8-91.3-149.8-18.5-30.4-58.2-40-88.5-21.5l-136.7,83.3c-9.4,6.8-9,13.2-12.4,21.3Z"/>
        <path class="cls-2" d="M1252.8,896.5l-175.6-115.1h-.1c-7.7-5.1-17-7.2-26.1-5.7l-606.9,110.4c-11.8,1.8-16.4-14.8-5.3-19.3l264.9-106.2c9.4-3.8,12.3-15.6,5.7-23.3l-182-214.1c-4.7-5.5,2.3-13.2,8.2-9.1l251,171.9c8.1,5.5,19.2,1.6,22-7.8l69.5-234.2c7.9-26.6,11.9-54.1,11.9-81.8v-120.1c0-35.6-28.8-64.4-64.4-64.4h-192.3c-35.6,0-64.4,28.8-64.4,64.4v169.7c0,24.6-27.4,39.4-48,25.9l-147.5-96.7c-29.8-19.5-69.7-11.2-89.2,18.6l-105.4,160.9c-19.5,29.8-11.2,69.7,18.6,89.2l181,118.6c18.8,12.3,18.7,39.9-.2,52l-176.6,113.5c-29.9,19.2-38.6,59.1-19.4,89l104,161.8c19.2,29.9,59.1,38.6,89,19.4l146-93.8c20.6-13.3,47.7,1.6,47.7,26.1v162.7c0,35.6,28.8,64.4,64.4,64.4h192.3c35.6,0,64.4-28.8,64.4-64.4v-158.8c0-24.6,27.4-39.4,48-25.9l138.8,91c29.8,19.5,69.7,11.2,89.2-18.6l105.4-160.9c19.5-29.8,11.2-69.7-18.6-89.2Z"/>
        <path class="cls-1" d="M878.8,683.8"/>
      </g>
    </g>

    <text x="1150" y="750" class="text font-bold">OpMentis</text>
  </g>
</svg>